<?xml version="1.0"?><svg version="1.1" id="svg2" width="333.33334" height="133.33333" viewBox="0 0 333.33334 133.33333" xmlns="http://www.w3.org/2000/svg" xmlns:c2pa="http://c2pa.org/manifest"><metadata><c2pa:manifest>AAAWgmp1bWIAAAAeanVtZGMycGEAEQAQgAAAqgA4m3EDYzJwYQAAABZcanVtYgAAAEdqdW1kYzJtYQARABCAAACqADibcQN1cm46YzJwYTozYTkwZjFkZS04MGM2LTRiY2YtYWQ2ZS1kMGY1M2Y3MDI5MTcAAAADl2p1bWIAAAApanVtZGMyYXMAEQAQgAAAqgA4m3EDYzJwYS5hc3NlcnRpb25zAAAAALxqdW1iAAAARGp1bWRjYm9yABEAEIAAAKoAOJtxE2MycGEuaW5ncmVkaWVudC52MwAAAAAYYzJzaA7A61MByS4VcotD5rMGJRkAAABwY2JvcqNpZGM6Zm9ybWF0bWltYWdlL3N2Zyt4bWxqaW5zdGFuY2VJRHgseG1wOmlpZDpmMTdmNzFkNC1mMDhkLTRkMjAtYTVhZi0yMmZlMjJmZjMwMGNscmVsYXRpb25zaGlwaHBhcmVudE9mAAAB4mp1bWIAAABBanVtZGNib3IAEQAQgAAAqgA4m3ETYzJwYS5hY3Rpb25zLnYyAAAAABhjMnNopSAfsvie8qhKgy3DcoKP/gAAAZljYm9yomdhY3Rpb25zgqJmYWN0aW9ua2MycGEub3BlbmVkanBhcmFtZXRlcnOha2luZ3JlZGllbnRzgaJjdXJseC1zZWxmI2p1bWJmPWMycGEuYXNzZXJ0aW9ucy9jMnBhLmluZ3JlZGllbnQudjNkaGFzaFggzTJiJQU4nqopLa2sf0DKr4oAgBhcqsKLAVh0qjiO9iOkZmFjdGlvbngdY29tLmFudGhyb3BpYy5jbGF1ZGUucHJvdmlkZWRqcGFyYW1ldGVyc6F4H2NvbS5hbnRocm9waWMub3JpZ2luLWNvbmZpZGVuY2VndW5rbm93bmtkZXNjcmlwdGlvbnhmQ2xhdWRlIHByb3ZpZGVkIHRoaXMgZmlsZSBhdCB0aGUgcmVxdWVzdCBvZiBhIHVzZXIgYW5kIG1heSBoYXZlIGNyZWF0ZWQgb3IgbW9kaWZpZWQgdGhlIGZpbGUgY29udGVudHMubXNvZnR3YXJlQWdlbnShZG5hbWVmQ2xhdWRlcmFsbEFjdGlvbnNJbmNsdWRlZPUAAADIanVtYgAAAEBqdW1kY2JvcgARABCAAACqADibcRNjMnBhLmhhc2guZGF0YQAAAAAYYzJzaCC7YwJIqoaKOrtgXwF5PQYAAACAY2JvcqVjYWxnZnNoYTI1NmNwYWRNAAAAAAAAAAAAAAAAAGRoYXNoWCBtVMs8WvHI3nziSGf2RK855FeBeSG9Ewlauq+F2YjzqWRuYW1lbmp1bWJmIG1hbmlmZXN0amV4Y2x1c2lvbnOBomVzdGFydBjbZmxlbmd0aBkeBAAAAj5qdW1iAAAAJ2p1bWRjMmNsABEAEIAAAKoAOJtxA2MycGEuY2xhaW0udjIAAAACD2Nib3KlY2FsZ2ZzaGEyNTZpc2lnbmF0dXJleE1zZWxmI2p1bWJmPS9jMnBhL3VybjpjMnBhOjNhOTBmMWRlLTgwYzYtNGJjZi1hZDZlLWQwZjUzZjcwMjkxNy9jMnBhLnNpZ25hdHVyZWppbnN0YW5jZUlEeCx4bXA6aWlkOjljOTc0ZWVjLWJkY2UtNDNhNi1hNjY4LTUyOWVlMmM2YmMwMnJjcmVhdGVkX2Fzc2VydGlvbnODomN1cmx4LXNlbGYjanVtYmY9YzJwYS5hc3NlcnRpb25zL2MycGEuaW5ncmVkaWVudC52M2RoYXNoWCDNMmIlBTieqiktrax/QMqvigCAGFyqwosBWHSqOI72I6JjdXJseCpzZWxmI2p1bWJmPWMycGEuYXNzZXJ0aW9ucy9jMnBhLmFjdGlvbnMudjJkaGFzaFggB017paE4/UxHT3kyFE9RZK9MPrMm1mr3qlc2lVuQWfiiY3VybHgpc2VsZiNqdW1iZj1jMnBhLmFzc2VydGlvbnMvYzJwYS5oYXNoLmRhdGFkaGFzaFggRcoNFw8wtEPgosuVSS/ab8akUfVO8feFBHbSsNIvsLp0Y2xhaW1fZ2VuZXJhdG9yX2luZm+jZG5hbWVvQW50aHJvcGljIEZpbGVzZ3ZlcnNpb25lMS4wLjBrc3BlY1ZlcnNpb25lMi40LjAAABA4anVtYgAAAChqdW1kYzJjcwARABCAAACqADibcQNjMnBhLnNpZ25hdHVyZQAAABAIY2JvctKEWQISogEmGCFZAgowggIGMIIBjaADAgECAhRA5aAK7sI50L64g/oGQgU9Z1UTADAKBggqhkjOPQQDAzBJMRcwFQYDVQQKEw5BbnRocm9waWMsIFBCQzEuMCwGA1UEAxMlQW50aHJvcGljIENvbnRlbnQgQ3JlZGVudGlhbHMgUm9vdCBDQTAeFw0yNjA4MDcxODQzNTZaFw0yODA4MDYxOTQzNTZaMEQxFzAVBgNVBAoTDkFudGhyb3BpYywgUEJDMSkwJwYDVQQDEyBBbnRocm9waWMgQ2xhdWRlIENvbnRlbnQgU2lnbmluZzBZMBMGByqGSM49AgEGCCqGSM49AwEHA0IABJh6CmvLUBgFFNU0vUKlOVtE6djd17L5SuwX0LemFisBM3dkd/3cyjxFA3Qo5S46fX0/ihY0VZ7mfb9KF703t5OjWDBWMA4GA1UdDwEB/wQEAwIHgDAVBgNVHSUEDjAMBgorBgEEAYPoXgIBMAwGA1UdEwEB/wQCMAAwHwYDVR0jBBgwFoAUzlHiBIFOZFsj+OPEz5o+nMHXXMIwCgYIKoZIzj0EAwMDZwAwZAIwMXMdFJ4BetLLVY7ORuE9noqbbAZOZn/aArXyTwFAZfKrPzxF2vPoJNf1+UCdg1XGAjBwX1zd9WGqYkqmL5SFqw1QySjr1zJfpJM9+1rdDwSPLMOPOjKuiXjoU/pUUeG9RwmhY3BhZFkNngAAAAAAAAAAAAAAAAAAAAAAAAAAAAAAAAAAAAAAAAAAAAAAAAAAAAAAAAAAAAAAAAAAAAAAAAAAAAAAAAAAAAAAAAAAAAAAAAAAAAAAAAAAAAAAAAAAAAAAAAAAAAAAAAAAAAAAAAAAAAAAAAAAAAAAAAAAAAAAAAAAAAAAAAAAAAAAAAAAAAAAAAAAAAAAAAAAAAAAAAAAAAAAAAAAAAAAAAAAAAAAAAAAAAAAAAAAAAAAAAAAAAAAAAAAAAAAAAAAAAAAAAAAAAAAAAAAAAAAAAAAAAAAAAAAAAAAAAAAAAAAAAAAAAAAAAAAAAAAAAAAAAAAAAAAAAAAAAAAAAAAAAAAAAAAAAAAAAAAAAAAAAAAAAAAAAAAAAAAAAAAAAAAAAAAAAAAAAAAAAAAAAAAAAAAAAAAAAAAAAAAAAAAAAAAAAAAAAAAAAAAAAAAAAAAAAAAAAAAAAAAAAAAAAAAAAAAAAAAAAAAAAAAAAAAAAAAAAAAAAAAAAAAAAAAAAAAAAAAAAAAAAAAAAAAAAAAAAAAAAAAAAAAAAAAAAAAAAAAAAAAAAAAAAAAAAAAAAAAAAAAAAAAAAAAAAAAAAAAAAAAAAAAAAAAAAAAAAAAAAAAAAAAAAAAAAAAAAAAAAAAAAAAAAAAAAAAAAAAAAAAAAAAAAAAAAAAAAAAAAAAAAAAAAAAAAAAAAAAAAAAAAAAAAAAAAAAAAAAAAAAAAAAAAAAAAAAAAAAAAAAAAAAAAAAAAAAAAAAAAAAAAAAAAAAAAAAAAAAAAAAAAAAAAAAAAAAAAAAAAAAAAAAAAAAAAAAAAAAAAAAAAAAAAAAAAAAAAAAAAAAAAAAAAAAAAAAAAAAAAAAAAAAAAAAAAAAAAAAAAAAAAAAAAAAAAAAAAAAAAAAAAAAAAAAAAAAAAAAAAAAAAAAAAAAAAAAAAAAAAAAAAAAAAAAAAAAAAAAAAAAAAAAAAAAAAAAAAAAAAAAAAAAAAAAAAAAAAAAAAAAAAAAAAAAAAAAAAAAAAAAAAAAAAAAAAAAAAAAAAAAAAAAAAAAAAAAAAAAAAAAAAAAAAAAAAAAAAAAAAAAAAAAAAAAAAAAAAAAAAAAAAAAAAAAAAAAAAAAAAAAAAAAAAAAAAAAAAAAAAAAAAAAAAAAAAAAAAAAAAAAAAAAAAAAAAAAAAAAAAAAAAAAAAAAAAAAAAAAAAAAAAAAAAAAAAAAAAAAAAAAAAAAAAAAAAAAAAAAAAAAAAAAAAAAAAAAAAAAAAAAAAAAAAAAAAAAAAAAAAAAAAAAAAAAAAAAAAAAAAAAAAAAAAAAAAAAAAAAAAAAAAAAAAAAAAAAAAAAAAAAAAAAAAAAAAAAAAAAAAAAAAAAAAAAAAAAAAAAAAAAAAAAAAAAAAAAAAAAAAAAAAAAAAAAAAAAAAAAAAAAAAAAAAAAAAAAAAAAAAAAAAAAAAAAAAAAAAAAAAAAAAAAAAAAAAAAAAAAAAAAAAAAAAAAAAAAAAAAAAAAAAAAAAAAAAAAAAAAAAAAAAAAAAAAAAAAAAAAAAAAAAAAAAAAAAAAAAAAAAAAAAAAAAAAAAAAAAAAAAAAAAAAAAAAAAAAAAAAAAAAAAAAAAAAAAAAAAAAAAAAAAAAAAAAAAAAAAAAAAAAAAAAAAAAAAAAAAAAAAAAAAAAAAAAAAAAAAAAAAAAAAAAAAAAAAAAAAAAAAAAAAAAAAAAAAAAAAAAAAAAAAAAAAAAAAAAAAAAAAAAAAAAAAAAAAAAAAAAAAAAAAAAAAAAAAAAAAAAAAAAAAAAAAAAAAAAAAAAAAAAAAAAAAAAAAAAAAAAAAAAAAAAAAAAAAAAAAAAAAAAAAAAAAAAAAAAAAAAAAAAAAAAAAAAAAAAAAAAAAAAAAAAAAAAAAAAAAAAAAAAAAAAAAAAAAAAAAAAAAAAAAAAAAAAAAAAAAAAAAAAAAAAAAAAAAAAAAAAAAAAAAAAAAAAAAAAAAAAAAAAAAAAAAAAAAAAAAAAAAAAAAAAAAAAAAAAAAAAAAAAAAAAAAAAAAAAAAAAAAAAAAAAAAAAAAAAAAAAAAAAAAAAAAAAAAAAAAAAAAAAAAAAAAAAAAAAAAAAAAAAAAAAAAAAAAAAAAAAAAAAAAAAAAAAAAAAAAAAAAAAAAAAAAAAAAAAAAAAAAAAAAAAAAAAAAAAAAAAAAAAAAAAAAAAAAAAAAAAAAAAAAAAAAAAAAAAAAAAAAAAAAAAAAAAAAAAAAAAAAAAAAAAAAAAAAAAAAAAAAAAAAAAAAAAAAAAAAAAAAAAAAAAAAAAAAAAAAAAAAAAAAAAAAAAAAAAAAAAAAAAAAAAAAAAAAAAAAAAAAAAAAAAAAAAAAAAAAAAAAAAAAAAAAAAAAAAAAAAAAAAAAAAAAAAAAAAAAAAAAAAAAAAAAAAAAAAAAAAAAAAAAAAAAAAAAAAAAAAAAAAAAAAAAAAAAAAAAAAAAAAAAAAAAAAAAAAAAAAAAAAAAAAAAAAAAAAAAAAAAAAAAAAAAAAAAAAAAAAAAAAAAAAAAAAAAAAAAAAAAAAAAAAAAAAAAAAAAAAAAAAAAAAAAAAAAAAAAAAAAAAAAAAAAAAAAAAAAAAAAAAAAAAAAAAAAAAAAAAAAAAAAAAAAAAAAAAAAAAAAAAAAAAAAAAAAAAAAAAAAAAAAAAAAAAAAAAAAAAAAAAAAAAAAAAAAAAAAAAAAAAAAAAAAAAAAAAAAAAAAAAAAAAAAAAAAAAAAAAAAAAAAAAAAAAAAAAAAAAAAAAAAAAAAAAAAAAAAAAAAAAAAAAAAAAAAAAAAAAAAAAAAAAAAAAAAAAAAAAAAAAAAAAAAAAAAAAAAAAAAAAAAAAAAAAAAAAAAAAAAAAAAAAAAAAAAAAAAAAAAAAAAAAAAAAAAAAAAAAAAAAAAAAAAAAAAAAAAAAAAAAAAAAAAAAAAAAAAAAAAAAAAAAAAAAAAAAAAAAAAAAAAAAAAAAAAAAAAAAAAAAAAAAAAAAAAAAAAAAAAAAAAAAAAAAAAAAAAAAAAAAAAAAAAAAAAAAAAAAAAAAAAAAAAAAAAAAAAAAAAAAAAAAAAAAAAAAAAAAAAAAAAAAAAAAAAAAAAAAAAAAAAAAAAAAAAAAAAAAAAAAAAAAAAAAAAAAAAAAAAAAAAAAAAAAAAAAAAAAAAAAAAAAAAAAAAAAAAAAAAAAAAAAAAAAAAAAAAAAAAAAAAAAAAAAAAAAAAAAAAAAAAAAAAAAAAAAAAAAAAAAAAAAAAAAAAAAAAAAAAAAAAAAAAAAAAAAAAAAAAAAAAAAAAAAAAAAAAAAAAAAAAAAAAAAAAAAAAAAAAAAAAAAAAAAAAAAAAAAAAAAAAAAAAAAAAAAAAAAAAAAAAAAAAAAAAAAAAAAAAAAAAAAAAAAAAAAAAAAAAAAAAAAAAAAAAAAAAAAAAAAAAAAAAAAAAAAAAAAAAAAAAAAAAAAAAAAAAAAAAAAAAAAAAAAAAAAAAAAAAAAAAAAAAAAAAAAAAAAAAAAAAAAAAAAAAAAAAAAAAAAAAAAAAAAAAAAAAAAAAAAAAAAAAAAAAAAAAAAAAAAAAAAAAAAAAAAAAAAAAAAAAAAAAAAAAAAAAAAAAAAAAAAAAAAAAAAAAAAAAAAAAAAAAAAAAAAAAAAAAAAAAAAAAAAAAAAAAAAAAAAAAAAAAAAAAAAAAAAAAAAAAAAAAAAAAAAAAAAAAAAAAAAAAAAAAAAAAAAAAAAAAAAAAAAAAAAAAAAAAAAAAAAAAAAAAAAAAAAAAAAAAAAAAAAAAAAAAAAAAAAAAAAAAAAAAAAAAAAAAAAAAAAAAAAAAAAAAAAAAAAAAAAAAAAAAAAAAAAAAAAAAAAAAAAAAAAAAAAAAAAAAAAAAAAAAAAAAAAAAAAAAAAAAAAAAAAAAAAAAAAAAAAAAAAAAAAAAAAAAAAAAAAAAAAAAAAAAAAAAAAAAAAAAAAAAAAAAAAAAAAAAAAAAAAAAAAAAAAAAAAAAAAAAAAAAAAAAAAAAAAAAAAAAAAAAAAAAAAAAAAAAAAAAAAAAAAAAAAAAAAAAAAAAAAAAAAAAAAAAAAAAAAAAAAAAAAAAAAAAAAAAAAAAAAAAAAAAAAAAAAAAAAAAAAAAAAAAAAAAAAAAAAAAAAAAAAAAAAAAAAAAAAAAAAAAAAAAAAAAAAAAAAAAAAAAAAAAAAAAAAAAAAAAAAAAAAAAAAAAAAAAAAAAAAAAAAAAAAAAAAAAAAAAAAAAAAAAAAAAAAAAAAAAAAAAAAAAAAAAAAAAAAAAAAAAAAAAAAAAAAAAAAAAAAAAAAAAAAAAAAAAAAAAAAAAAAAAAAAAAAAAAAAAAAAAAAAAAAAAAAAAAAAAAAAAAAAAAAAAAAAAAAAAAAAAAAAAAAAAAAAAAAAAAAAAAAAAAAAAAAAAAAAAAAAAAAAAAAAAAAAAAAAAAAAAAAAAAAAAAAAAAAAAAAAAAAAAAAAAAAAAAAAAAAAAAAAAAAAAAAAAAAAAAAAAAAAAAAAAAAAAAAAAAAAAAAAAAAAAAAAAAAAAAAAAAAAAAAAAAAAAAAAAAAAAAAAAAAAAAAAAAAAAAAAAAAAAAAAAAAAAAAAAAAAAAAAAAAAAAAAAAAAAAAAAAAAAAAAAAAAAAAAAAAAAAAAAAAAAAAAAAAAPZYQO/krH0jMK5mf1LG8yBZzncPlVwGBOnp9ofxQUgGzdMFNOuudleirWSooduhiHO2E9nDJX2KHG/MndUtSK4i/fs=</c2pa:manifest></metadata>
  <defs id="defs6">
    <clipPath clipPathUnits="userSpaceOnUse" id="clipPath16">
      <path d="M 0,100 H 250 V 0 H 0 Z" id="path14"></path>
    </clipPath>
    <clipPath clipPathUnits="userSpaceOnUse" id="clipPath52">
      <path d="M 0,100 H 250 V 0 H 0 Z" id="path50"></path>
    </clipPath>
  </defs>
  <namedview id="namedview4" pagecolor="#ffffff" bordercolor="#000000" borderopacity="0.25"></namedview>
  <g id="g8" transform="matrix(1.3333333,0,0,-1.3333333,0,133.33333)">
    <g id="g10">
      <g id="g12" clip-path="url(#clipPath16)">
        <g id="g18" transform="translate(209.2309,76.5738)">
          <path d="m 0,0 c -0.3,-0.67 -0.59,-1.33 -0.89,-2 v -4.5 h -3 v 1.7 c 0,1.38 -1.12,2.5 -2.5,2.5 -1.38,0 -2.5,-1.12 -2.5,-2.5 v -1.7 h -3 V -2 l -1,2 z" style="fill:#0a3933;fill-opacity:1;fill-rule:nonzero;stroke:none" id="path20"></path>
        </g>
        <g id="g22" transform="translate(210.0642,83.5738)">
          <path d="M 0,0 C 0.138,0 0.249,-0.112 0.249,-0.249 V -6 h -0.01 v -0.5 h -14.241 c -0.137,0 -0.249,0.112 -0.249,0.249 v 6.002 c 0,0.137 0.112,0.249 0.249,0.249 h 2.502 c 0.138,0 0.249,-0.112 0.249,-0.249 v -2.002 c 0,-0.137 0.112,-0.249 0.249,-0.249 H -8.5 c 0.138,0 0.249,0.112 0.249,0.249 v 2.002 C -8.251,-0.112 -8.139,0 -8.002,0 H -5.5 c 0.138,0 0.249,-0.112 0.249,-0.249 v -2.002 c 0,-0.137 0.112,-0.249 0.249,-0.249 H -3 c 0.138,0 0.249,0.112 0.249,0.249 v 2.002 c 0,0.137 0.112,0.249 0.249,0.249 z" style="fill:#0a3933;fill-opacity:1;fill-rule:nonzero;stroke:none" id="path24"></path>
        </g>
        <g id="g26" transform="translate(202.7859,73.5738)">
          <path d="M 0,0 V 0 C -0.966,0 -1.75,-0.784 -1.75,-1.75 V -3.5 h 3.5 v 1.75 C 1.75,-0.784 0.967,0 0,0" style="fill:#c09e62;fill-opacity:1;fill-rule:nonzero;stroke:none" id="path28"></path>
        </g>
        <g id="g30" transform="translate(69.8134,71.0738)">
          <path d="m 0,0 v 9.307 c -2.646,1.497 -6.759,3.301 -12,3.693 -3.007,0.225 -7.468,0.558 -12,-2 -1.485,-0.838 -4.31,-2.485 -6,-6 -0.388,-0.808 -1.852,-4.076 -1,-8 0.988,-4.55 4.174,-7.681 7,-9 5,-2.333 10,-4.667 15,-7 4.363,-1.819 6.772,-6.123 6,-10 -0.786,-3.947 -4.537,-5.783 -5,-6 -1.234,-0.5 -3.768,-1.334 -7,-1 -2.812,0.291 -4.889,1.335 -6,2 -1.641,0.995 -3.853,2.583 -6,5 -1.954,2.2 -3.208,4.359 -4,6 v -11 l 8,-3 c 2.78,-0.864 9.016,-2.35 16,0 2.459,0.827 4.458,1.944 6,3 0.777,0.618 4.585,3.776 5,9 0.417,5.24 -2.749,10.437 -8,13 -3.667,1.667 -7.333,3.333 -11,5 -7.49,2.008 -11.183,8.006 -10,12 0.991,3.347 5.252,4.763 6,5 1.292,0.323 3.892,0.785 7,0 C -8.125,9.021 -5.759,6.685 -4.865,5.7 -3.243,3.8 -1.622,1.9 0,0" style="fill:#0a3028;fill-opacity:1;fill-rule:nonzero;stroke:none" id="path32"></path>
        </g>
        <g id="g34" transform="translate(121.1365,63.3791)">
          <path d="m 0,0 c -0.332,-0.077 -0.359,-0.54 -0.036,-0.648 1.248,-0.418 2.739,-1.191 3.713,-2.657 0.785,-1.184 0.933,-2.367 1,-3 0.505,-4.82 0.166,-14.85 0.039,-18.068 -0.042,-1.051 -0.363,-2.09 -1.021,-2.91 -0.006,-0.008 -0.012,-0.015 -0.018,-0.022 -1.418,-1.749 -3.525,-1.964 -4,-2 h 17 c -0.98,-0.04 -2.177,0.646 -3.005,1.226 -1.051,0.735 -1.637,1.986 -1.497,3.26 10e-4,0.005 10e-4,0.009 0.002,0.014 -0.143,5.004 -0.286,10.008 -0.429,15.013 -0.092,3.218 1.72,6.303 4.721,7.471 0.858,0.333 1.773,0.514 2.708,0.516 3.961,0.008 6.283,-3.191 6.5,-3.5 1.708,0.885 2.7,2.687 2.5,4.5 -0.258,2.33 -2.346,3.423 -2.5,3.5 -1.188,0.172 -4.749,0.531 -8.5,-1.5 -3.281,-1.777 -4.904,-4.406 -5.5,-5.5 v 7 z" style="fill:#0a3028;fill-opacity:1;fill-rule:nonzero;stroke:none" id="path36"></path>
        </g>
        <g id="g38" transform="translate(194.8134,34.0738)">
          <path d="M 0,0 H 16.635 C 16.386,0.012 14.128,0.16 13,2 c -0.472,0.771 -0.565,1.541 -0.577,2 0.186,9.348 0.372,18.695 0.558,28.043 0.01,0.486 -0.44,0.851 -0.914,0.742 L 0,30 V 29 H 2 C 2.296,28.958 3.211,28.789 4,28 4.211,27.789 4.842,27.104 5,26 V 4 C 4.897,3.579 4.474,2.075 3,1 1.756,0.093 0.473,0.008 0,0" style="fill:#0a3028;fill-opacity:1;fill-rule:nonzero;stroke:none" id="path40"></path>
        </g>
      </g>
    </g>
    <text xml:space="preserve" transform="matrix(1,0,0,-1,58.1084,17.2754)" style="font-variant:normal;font-weight:normal;font-stretch:normal;font-size:6px;font-family:'Myriad Pro';-inkscape-font-specification:MyriadPro-Regular;writing-mode:lr-tb;fill:#c09e62;fill-opacity:1;fill-rule:nonzero;stroke:none" id="text44"><tspan x="0 5.3520002 9.1800003 16.398001 21.983999 27.209999 32.532001 36.167999 39.834 45.419998 51.948002 59.417999 64.764 70.386002 75.702003 81.977997 87.204002 90.839996 94.505997 100.128 105.474 110.7 114.528 120.594 126.24 131.466 136.78799" y="0" id="tspan42">SIMPLE. POWERFUL. RELIABLE.</tspan></text>
    <g id="g46">
      <g id="g48" clip-path="url(#clipPath52)">
        <g id="g54" transform="translate(102.8134,41.0738)">
          <path d="m 0,0 c -1.94,-2.85 -5.03,-4.43 -8,-4 -0.11,0.02 -0.21,0.03 -0.31,0.05 -2.7,0.53 -4.74,2.88 -4.7,5.63 0,0.11 0,0.22 0.01,0.32 0.3,4.45 5.48,8.64 13,10 z M 10,-4 C 9.45,-3.59 9.05,-3.11 8.76,-2.64 8.23,-1.79 8,-0.79 8,0.21 V 17 c -0.13,0.91 -0.63,3.66 -3,6 -2.79,2.75 -6.19,2.97 -7,3 -1,0 -5.39,-0.02 -6.85,-0.25 -1.17,-0.18 -2.21,-0.45 -3.09,-0.73 L -12,25 c -2.46,-0.8 -4.39,-1.89 -5.75,-2.83 C -17.91,22.06 -18,21.88 -18,21.69 v -5.18 c 0,-0.14 0.18,-0.19 0.25,-0.07 0.6,1.01 1.48,2.28 2.75,3.56 0.93,0.94 2.11,2.13 4,3 1.14,0.53 2.25,0.8 3.25,0.94 2.42,0.32 4.93,-0.49 6.41,-2.44 0.12,-0.16 0.23,-0.32 0.34,-0.5 0.28,-0.44 0.48,-0.88 0.62,-1.29 C -0.1,18.95 0,18.13 0,17.32 V 14 L -6.76,11.46 C -7.59,11.15 -8.43,10.9 -9.27,10.63 -17.14,8.14 -21.61,2.98 -21,-1 c 0.44,-2.86 3.43,-4.65 4,-5 3.71,-2.23 8.74,-1.85 13,1 1.33,1 2.67,2 4,3 0.05,-0.59 0.22,-1.77 1,-3 0.68,-1.07 1.51,-1.69 2,-2 1.11,-0.2 2.88,-0.39 5,0 2.32,0.43 4.02,1.36 5,2 -0.47,0 -1.77,0.08 -3,1" style="fill:#0a3028;fill-opacity:1;fill-rule:nonzero;stroke:none" id="path56"></path>
        </g>
        <g id="g58" transform="translate(174.8134,40.0738)">
          <path d="m 0,0 c -1.94,-2.85 -5.03,-4.43 -8,-4 -0.11,0.02 -0.21,0.03 -0.31,0.05 -2.7,0.53 -4.74,2.88 -4.7,5.63 0,0.11 0,0.22 0.01,0.32 0.3,4.45 5.48,8.64 13,10 z M 10,-4 C 9.45,-3.59 9.05,-3.11 8.76,-2.64 8.23,-1.79 8,-0.79 8,0.21 V 17 c -0.13,0.91 -0.63,3.66 -3,6 -2.79,2.75 -6.19,2.97 -7,3 -1,0 -5.39,-0.02 -6.85,-0.25 -1.17,-0.18 -2.21,-0.45 -3.09,-0.73 L -12,25 c -2.46,-0.8 -4.39,-1.89 -5.75,-2.83 C -17.91,22.06 -18,21.88 -18,21.69 v -5.18 c 0,-0.14 0.18,-0.19 0.25,-0.07 0.6,1.01 1.48,2.28 2.75,3.56 0.93,0.94 2.11,2.13 4,3 1.14,0.53 2.25,0.8 3.25,0.94 2.42,0.32 4.93,-0.49 6.41,-2.44 0.12,-0.16 0.23,-0.32 0.34,-0.5 0.28,-0.44 0.48,-0.88 0.62,-1.29 C -0.1,18.95 0,18.13 0,17.32 V 14 L -6.76,11.46 C -7.59,11.15 -8.43,10.9 -9.27,10.63 -17.14,8.14 -21.61,2.98 -21,-1 c 0.44,-2.86 3.43,-4.65 4,-5 3.71,-2.23 8.74,-1.85 13,1 1.33,1 2.67,2 4,3 0.05,-0.59 0.22,-1.77 1,-3 0.68,-1.07 1.51,-1.69 2,-2 1.11,-0.2 2.88,-0.39 5,0 2.32,0.43 4.02,1.36 5,2 -0.47,0 -1.77,0.08 -3,1" style="fill:#0a3028;fill-opacity:1;fill-rule:nonzero;stroke:none" id="path60"></path>
        </g>
      </g>
    </g>
  </g>
</svg>